<?xml version="1.0" encoding="UTF-8" standalone="no"?>
<!DOCTYPE svg PUBLIC "-//W3C//DTD SVG 1.1//EN" "http://www.w3.org/Graphics/SVG/1.1/DTD/svg11.dtd">
<svg width="100%" height="100%" viewBox="0 0 1080 1080" version="1.1" xmlns="http://www.w3.org/2000/svg" xmlns:xlink="http://www.w3.org/1999/xlink" xml:space="preserve" xmlns:serif="http://www.serif.com/" style="fill-rule:evenodd;clip-rule:evenodd;stroke-linejoin:round;stroke-miterlimit:2;">
    <g transform="matrix(-0.554681,0,0,1.10936,540,-59.0551)">
        <rect x="0" y="0" width="1080" height="1080" style="fill:url(#_Linear1);"/>
    </g>
    <g transform="matrix(0.554681,0,0,1.10936,540,-59.0551)">
        <rect x="0" y="0" width="1080" height="1080" style="fill:url(#_Linear2);"/>
    </g>
    <g transform="matrix(0.907407,0,0,0.907407,50,50)">
        <rect x="0" y="0" width="216.2" height="1080" style="fill:rgb(119,181,221);"/>
    </g>
    <g transform="matrix(0.907407,0,0,0.907407,245.274,50)">
        <rect x="0" y="0" width="216.2" height="1080" style="fill:rgb(220,169,174);"/>
    </g>
    <g transform="matrix(0.907407,0,0,0.907407,441.456,50)">
        <rect x="0" y="0" width="216.2" height="1080" style="fill:white;"/>
    </g>
    <g transform="matrix(0.907407,0,0,0.907407,637.637,50)">
        <rect x="0" y="0" width="216.2" height="1080" style="fill:rgb(220,169,174);"/>
    </g>
    <g transform="matrix(0.907407,0,0,0.907407,833.819,50)">
        <rect x="0" y="0" width="216.2" height="1080" style="fill:rgb(119,181,221);"/>
    </g>
    <g transform="matrix(1.56666,0,0,1,-40.1368,90.1656)">
        <g transform="matrix(0.860152,0,0,0.903952,161.957,42.149)">
            <path d="M334.961,368.67L286.131,368.67L286.131,585.42L253.339,585.42L253.339,368.67L204.269,368.67L204.269,322.92L334.961,322.92L334.961,368.67Z" style="fill:rgb(116,32,120);fill-rule:nonzero;"/>
        </g>
        <g transform="matrix(0.915536,0,0,0.886547,96.0051,51.8152)">
            <path d="M475.228,514.92C475.228,506.92 473.353,500.42 469.603,495.42C465.853,490.42 461.145,485.857 455.48,481.732C449.816,477.607 443.672,473.357 437.05,468.982C430.427,464.607 424.284,459.232 418.619,452.857C412.954,446.482 408.246,438.545 404.496,429.045C400.746,419.545 398.871,407.42 398.871,392.67C398.871,379.92 400.228,368.857 402.94,359.482C405.653,350.107 409.523,342.295 414.549,336.045C419.576,329.795 425.52,325.17 432.382,322.17C439.244,319.17 446.903,317.67 455.361,317.67C465.095,317.67 474.27,318.982 482.888,321.607C491.505,324.232 498.606,328.045 504.191,333.045L493.898,376.17C490.388,372.67 485.122,369.482 478.1,366.607C471.079,363.732 463.499,362.295 455.361,362.295C447.701,362.295 441.837,364.67 437.768,369.42C433.698,374.17 431.664,380.545 431.664,388.545C431.664,396.045 433.539,402.295 437.289,407.295C441.039,412.295 445.746,416.92 451.411,421.17C457.076,425.42 463.22,429.795 469.842,434.295C476.465,438.795 482.608,444.232 488.273,450.607C493.938,456.982 498.646,464.857 502.396,474.232C506.146,483.607 508.021,495.295 508.021,509.295C508.021,523.295 506.545,535.357 503.592,545.482C500.64,555.607 496.491,564.045 491.146,570.795C485.8,577.545 479.337,582.545 471.757,585.795C464.177,589.045 455.84,590.67 446.744,590.67C434.776,590.67 424.244,588.92 415.148,585.42C406.052,581.92 399.35,578.42 395.041,574.92L405.573,531.045C407.329,532.545 409.603,534.17 412.395,535.92C415.188,537.67 418.339,539.295 421.85,540.795C425.361,542.295 429.071,543.545 432.98,544.545C436.89,545.545 440.919,546.045 445.068,546.045C454.802,546.045 462.262,543.482 467.449,538.357C472.635,533.232 475.228,525.42 475.228,514.92Z" style="fill:rgb(116,32,120);fill-rule:nonzero;"/>
        </g>
        <g transform="matrix(1,0,0,0.927095,3.55271e-14,34.434)">
            <path d="M684.431,475.545L623.154,475.545L623.154,585.42L590.361,585.42L590.361,322.92L623.154,322.92L623.154,429.795L684.431,429.795L684.431,322.92L717.224,322.92L717.224,585.42L684.431,585.42L684.431,475.545Z" style="fill:rgb(244,219,78);fill-rule:nonzero;"/>
        </g>
    </g>
    <g transform="matrix(1.02623,0,0,0.977669,-28.3241,55.7734)">
        <rect x="1030" y="521.376" width="50" height="44.168" style="fill:rgb(119,181,221);"/>
    </g>
    <g transform="matrix(48.75,0,0,48.75,945.746,719.256)">
    </g>
    <text x="488.861px" y="719.256px" style="font-family:'PTSans-Regular', 'PT Sans', sans-serif;font-size:48.75px;fill:rgb(116,32,120);">TR<tspan x="543.656px " y="719.256px ">A</tspan>NS SUPP<tspan x="755.231px 788.576px 814.609px 839.715px " y="719.256px 719.256px 719.256px 719.256px ">ORT </tspan>HUB</text>
    <defs>
        <linearGradient id="_Linear1" x1="0" y1="0" x2="1" y2="0" gradientUnits="userSpaceOnUse" gradientTransform="matrix(1080,0,0,1080,0,540)"><stop offset="0" style="stop-color:white;stop-opacity:1"/><stop offset="0.54" style="stop-color:rgb(143,96,150);stop-opacity:1"/><stop offset="1" style="stop-color:rgb(99,35,109);stop-opacity:1"/></linearGradient>
        <linearGradient id="_Linear2" x1="0" y1="0" x2="1" y2="0" gradientUnits="userSpaceOnUse" gradientTransform="matrix(1080,0,0,1080,0,540)"><stop offset="0" style="stop-color:white;stop-opacity:1"/><stop offset="0.49" style="stop-color:rgb(247,228,121);stop-opacity:1"/><stop offset="1" style="stop-color:rgb(244,219,78);stop-opacity:1"/></linearGradient>
    </defs>
</svg>
